<?xml version="1.0" encoding="UTF-8" standalone="no"?>
<!-- Created with Inkscape (http://www.inkscape.org/) -->

<svg
   xmlns:dc="http://purl.org/dc/elements/1.1/"
   xmlns:cc="http://creativecommons.org/ns#"
   xmlns:rdf="http://www.w3.org/1999/02/22-rdf-syntax-ns#"
   xmlns:svg="http://www.w3.org/2000/svg"
   xmlns="http://www.w3.org/2000/svg"
   xmlns:sodipodi="http://sodipodi.sourceforge.net/DTD/sodipodi-0.dtd"
   xmlns:inkscape="http://www.inkscape.org/namespaces/inkscape"
   width="600"
   height="600"
   id="svg2"
   version="1.1"
   inkscape:version="0.48.5 r10040"
   sodipodi:docname="logo-fa-circular.svg"
   inkscape:export-filename="/home/enigma/Desktop/Logo FA circular.png"
   inkscape:export-xdpi="90"
   inkscape:export-ydpi="90">
  <defs
     id="defs4" />
  <sodipodi:namedview
     id="base"
     pagecolor="#ffffff"
     bordercolor="#666666"
     borderopacity="1.0"
     inkscape:pageopacity="0.0"
     inkscape:pageshadow="2"
     inkscape:zoom="0.91666667"
     inkscape:cx="300"
     inkscape:cy="300"
     inkscape:document-units="px"
     inkscape:current-layer="layer1"
     showgrid="false"
     inkscape:window-width="1280"
     inkscape:window-height="745"
     inkscape:window-x="-4"
     inkscape:window-y="34"
     inkscape:window-maximized="1"
     inkscape:snap-bbox="true"
     inkscape:bbox-paths="true"
     inkscape:bbox-nodes="true"
     inkscape:snap-bbox-edge-midpoints="true"
     inkscape:snap-bbox-midpoints="true"
     inkscape:object-paths="true"
     inkscape:snap-intersection-paths="true"
     inkscape:object-nodes="true"
     inkscape:snap-smooth-nodes="true"
     inkscape:snap-midpoints="true"
     inkscape:snap-object-midpoints="true"
     inkscape:snap-center="true"
     showguides="true"
     inkscape:guide-bbox="true" />
  <metadata
     id="metadata7">
    <rdf:RDF>
      <cc:Work
         rdf:about="">
        <dc:format>image/svg+xml</dc:format>
        <dc:type
           rdf:resource="http://purl.org/dc/dcmitype/StillImage" />
        <dc:title />
      </cc:Work>
    </rdf:RDF>
  </metadata>
  <g
     inkscape:groupmode="layer"
     id="layer3"
     inkscape:label="bg"
     style="display:inline"
     sodipodi:insensitive="true">
    <rect
       style="color:#000000;fill:#ffffff;fill-opacity:1;fill-rule:nonzero;stroke:#211e1e;stroke-width:0.70866144;stroke-linecap:round;stroke-linejoin:round;stroke-miterlimit:4;stroke-opacity:1;stroke-dasharray:none;stroke-dashoffset:0;marker:none;visibility:visible;display:inline;overflow:visible;enable-background:accumulate"
       id="rect3376"
       width="600.35498"
       height="600.35498"
       x="-0.17747979"
       y="-0.17748" />
    <rect
       style="opacity:0.5186916;fill:#ffffff;fill-opacity:1;stroke:none"
       id="rect3856"
       width="600"
       height="600"
       x="0"
       y="1.0237098e-05" />
  </g>
  <g
     inkscape:label="Vector final"
     inkscape:groupmode="layer"
     id="layer1"
     transform="translate(0,-452.36218)"
     style="display:inline">
    <rect
       style="fill:#2b1100;fill-opacity:1;stroke:none;display:none"
       id="rect3001"
       width="128.73438"
       height="130.04829"
       x="441.26562"
       y="825.76843" />
    <g
       id="g3757"
       style="fill:#2c86b2;fill-opacity:1;stroke:none">
      <path
         inkscape:connector-curvature="0"
         id="path3967"
         transform="translate(0,452.36218)"
         d="m 257.40625,33.59375 c -1.0157,0.009 -2.06147,0.0956 -3.09375,0.28125 -109.46101,18.661276 -196.463792,103.19763 -218.75,211.375 -0.403708,1.9596 -0.764018,3.93138 -1.125,5.90625 -0.362562,1.98352 -0.712297,3.97034 -1.03125,5.96875 -0.250863,1.57179 -0.495145,3.13802 -0.71875,4.71875 -0.137645,0.96875 -0.278966,1.93412 -0.40625,2.90625 -0.11347,0.87035 -0.207342,1.75207 -0.3125,2.625 -0.0946,0.78241 -0.193383,1.55923 -0.28125,2.34375 -0.194926,1.74579 -0.369784,3.4943 -0.53125,5.25 -0.01636,0.17741 -0.04648,0.35374 -0.0625,0.53125 -0.11334,1.25972 -0.216526,2.5166 -0.3125,3.78125 -0.112144,1.4732 -0.192933,2.95751 -0.28125,4.4375 -0.104655,1.75377 -0.210347,3.51823 -0.28125,5.28125 -0.02877,0.71768 -0.03935,1.43714 -0.0625,2.15625 -0.04605,1.42642 -0.101225,2.84905 -0.125,4.28125 -0.0031,0.18788 0.0027,0.37453 0,0.5625 C 30.011886,297.33056 30,298.66461 30,300 c 0,59.84116 19.518236,115.08752 52.46875,159.84375 0.341485,0.46383 0.65563,0.94468 1,1.40625 9.198884,12.59784 26.06196,17.89069 41.21875,11.84375 17.95386,-7.16286 26.69411,-27.51489 19.53125,-45.46875 -1.28501,-3.2209 -2.9868,-6.12913 -5.03125,-8.71875 C 114.56455,385.67034 100,344.54041 100,300 c 0,-10.83554 0.87267,-21.4755 2.53125,-31.84375 l 138.5,0 c 6.90356,0 12.5,-5.59644 12.5,-12.5 l 0,-47.375 c 0,-6.90356 -5.59644,-12.5 -12.5,-12.5 l -111.75,0 c 28.19124,-46.08908 74.47686,-79.97327 129.03125,-91.4375 7.99593,-1.68029 12.48317,-6.91851 12.5,-12.5 l 0,-0.03125 0,-46.09375 c 0,-7.97665 -6.29635,-12.18917 -13.40625,-12.125 z"
         style="fill:#2c86b2;fill-opacity:1;stroke:none;display:inline" />
      <path
         inkscape:connector-curvature="0"
         id="path3870"
         transform="translate(0,452.36218)"
         d="m 339.15625,32.96875 c -6.90356,0 -12.5,5.59644 -12.5,12.5 0,0.084 -0.002,0.16641 0,0.25 l 0,116.90625 0,125.9375 c 0,6.90356 -5.59644,12.5 -12.5,12.5 l -37.125,0 c -6.90356,0 -12.5,5.59644 -12.5,12.5 l 0,47.34375 c 0,6.90356 5.59644,12.5 12.5,12.5 l 37.125,0 c 6.90356,0 12.5,5.59644 12.5,12.5 l 0,62.1875 c 0,6.90356 5.59644,12.5 12.5,12.5 l 44.78125,0 c 6.90356,0 12.5,-5.59644 12.5,-12.5 l 0,-74.6875 21.46875,0 0,-0.0937 c 8.55899,-0.0105 18.70165,0.0491 28.8125,0.0937 l 27.40625,0 c 3.92562,-0.0258 7.64512,-0.0539 10.84375,-0.125 10.80782,-0.24014 14.74788,1.12078 15.15625,8.34375 1.72215,30.4599 -4.29172,64.3593 -16,95.21875 -3.01975,7.95914 3.76873,14.12795 10.5625,7.21875 50.72331,-51.58513 73.60593,-115.05037 75.21875,-177.96875 0.052,-2.02963 0.0859,-4.0657 0.0937,-6.09375 C 570,184.86342 497.92392,86.57379 396.4375,47.75 378.81185,41.00728 360.30044,36.05766 341.125,33.125 340.8355,33.0793 340.54675,33.0261 340.25,33 c -0.0306,-0.005 -0.0632,0.005 -0.0937,0 -0.32866,-0.0264 -0.66584,-0.03125 -1,-0.03125 z m 69.78125,101.875 c 2.24122,0 4.33936,0.58798 6.15625,1.625 0.16398,0.0936 0.30948,0.21187 0.46875,0.3125 0.12293,0.0872 0.25227,0.16253 0.375,0.25 0.29415,0.20086 0.59938,0.40081 0.875,0.625 47.44859,34.19928 79.29383,88.68295 82.84375,150.75 6.5e-4,0.0523 0,0.10376 0,0.15625 0,6.90373 -5.59707,11.34388 -12.5,11.4375 l -76,0 0,0.0312 c -0.60863,-0.005 -2.04284,-0.0283 -2.34375,-0.0312 -6.8456,-0.0675 -12.375,-4.57594 -12.375,-11.4375 l 0,-141.21875 c 0,-6.90356 5.59644,-12.5 12.5,-12.5 z"
         style="fill:#2c86b2;fill-opacity:1;stroke:none;display:inline" />
      <path
         inkscape:connector-curvature="0"
         id="rect3807"
         d="m 183.18398,921.26839 c -19.32997,0 -35,15.67003 -35,35 0,12.97971 7.06787,24.30068 17.5625,30.34375 0.33176,0.19103 0.6615,0.38215 1,0.5625 39.34063,22.39026 84.8721,35.18756 133.375,35.18756 48.44543,0 93.8836,-12.779 133.1875,-35.12506 0.10824,-0.0615 0.2356,-0.0946 0.34375,-0.15625 0.28322,-0.15516 0.56455,-0.33682 0.84375,-0.5 5.07438,-2.96579 9.47593,-7.23315 12.625,-12.6875 9.66498,-16.74024 3.92774,-38.14752 -12.8125,-47.8125 -5.75446,-3.32234 -12.05937,-4.8262 -18.25,-4.6875 -5.80427,0.13004 -11.50987,1.69409 -16.5625,4.5625 -29.27168,16.80054 -63.20233,26.40625 -99.375,26.40625 -35.92816,0 -69.67122,-9.44591 -98.8125,-26.03125 -0.19023,-0.11559 -0.36991,-0.23171 -0.5625,-0.34375 -5.16484,-3.00471 -11.15669,-4.71875 -17.5625,-4.71875 z"
         style="fill:#2c86b2;fill-opacity:1;stroke:none;display:inline" />
    </g>
  </g>
</svg>
